<?xml version="1.0" standalone="no"?>
<!DOCTYPE svg PUBLIC "-//W3C//DTD SVG 20010904//EN"
 "http://www.w3.org/TR/2001/REC-SVG-20010904/DTD/svg10.dtd">
<svg version="1.0" xmlns="http://www.w3.org/2000/svg"
 width="260.000000pt" height="260.000000pt" viewBox="0 0 260.000000 260.000000"
 preserveAspectRatio="xMidYMid meet">
<metadata>
Created by potrace 1.11, written by Peter Selinger 2001-2013
</metadata>
<g transform="translate(0.000000,260.000000) scale(0.100000,-0.100000)"
fill="#000000" stroke="none">
<path d="M1000 2194 c-271 -34 -426 -103 -593 -264 -100 -95 -146 -163 -184
-267 -44 -122 -56 -199 -57 -358 -1 -175 17 -254 87 -389 80 -155 292 -334
482 -407 122 -47 192 -59 368 -59 l157 0 0 112 0 111 -138 -6 c-223 -10 -324
17 -448 120 -137 115 -235 278 -258 431 l-6 42 425 0 425 0 0 111 0 111 -422
-8 -421 -7 7 43 c20 125 170 308 314 383 105 55 240 87 395 94 l127 6 0 108 0
109 -77 -1 c-43 -1 -125 -7 -183 -15z"/>
</g>
</svg>
